<?xml version="1.0"?>
<svg xmlns="http://www.w3.org/2000/svg" xmlns:xlink="http://www.w3.org/1999/xlink" version="1.1" id="Capa_1" x="0px" y="0px" viewBox="0 0 512 512" style="enable-background:new 0 0 512 512;" xml:space="preserve" width="512px" height="512px" class=""><g><g>
	<g>
		<path d="M486.85,376.447l-48.375-145.122L486.85,86.204c0.941-2.822,0.468-5.924-1.272-8.338    c-1.738-2.412-4.531-3.842-7.506-3.842H317.687c-5.111,0-9.253,4.142-9.253,9.253c0,5.111,4.142,9.253,9.253,9.253h147.549    l-45.29,135.869c-0.633,1.9-0.633,3.953,0,5.853l45.29,135.869H277.59V33.928c0-5.111-4.142-9.253-9.253-9.253H80.017    C78.476,10.815,66.697,0,52.434,0C37.128,0,24.675,12.453,24.675,27.759v474.988c0,5.111,4.142,9.253,9.253,9.253H70.94    c5.111,0,9.253-4.142,9.253-9.253v-163.47h178.892v40.096c0,5.111,4.142,9.253,9.253,9.253h209.735    c2.975,0,5.768-1.43,7.506-3.842C487.318,382.371,487.792,379.269,486.85,376.447z M61.687,493.494H43.181V27.759    c0-5.103,4.15-9.253,9.253-9.253s9.253,4.15,9.253,9.253V493.494z M259.084,320.771H80.193V43.181h178.892V320.771z" data-original="#000000" class="active-path" data-old_color="#000000" fill="#ABABAB"/>
	</g>
</g></g> </svg>
